<?xml version="1.0" encoding="utf-8"?>
<!-- Generator: Adobe Illustrator 28.2.0, SVG Export Plug-In . SVG Version: 6.00 Build 0)  -->
<svg version="1.1" id="Layer_1" xmlns="http://www.w3.org/2000/svg" xmlns:xlink="http://www.w3.org/1999/xlink" x="0px" y="0px"
	 viewBox="0 0 32 32" style="enable-background:new 0 0 32 32;" xml:space="preserve">
<style type="text/css">
	.st0{fill:#1CB253;}
	.st1{fill:url(#SVGID_1_);}
	.st2{fill:#FFFFFF;}
</style>
<g>
	<path class="st0" d="M12.08,0.23v6.22c-0.32,0.07-0.63,0.18-0.95,0.25c-0.46,0.14-0.88,0.32-1.3,0.49
		C9.76,7.22,9.66,7.26,9.58,7.29C9.13,7.5,8.67,7.75,8.25,8.03c-0.04,0-0.04,0.04-0.07,0.04C8.11,8.1,8.07,8.14,8,8.17
		C7.65,8.38,7.34,8.63,7.02,8.91C6.98,8.95,6.98,8.95,6.95,8.95C6.84,9.02,6.77,9.09,6.7,9.16c0,0-0.04,0-0.04,0.04
		C6.39,9.44,6.14,9.65,5.89,9.93c-0.63,0.63-1.2,1.34-1.65,2.11V0.23H12.08L12.08,0.23z"/>
	
		<linearGradient id="SVGID_1_" gradientUnits="userSpaceOnUse" x1="11.88" y1="26.3443" x2="18.042" y2="3.6841" gradientTransform="matrix(1 0 0 -1 0 36)">
		<stop  offset="0" style="stop-color:#1CB253"/>
		<stop  offset="1" style="stop-color:#3C56A6"/>
	</linearGradient>
	<path class="st1" d="M27.79,19.39L27.79,19.39c0,0.14,0,0.28-0.04,0.42c0,0.07,0,0.18-0.04,0.25c-0.04,0.42-0.11,0.81-0.18,1.2
		c0,0.07-0.04,0.14-0.04,0.18c-0.04,0.14-0.07,0.28-0.11,0.42c-0.04,0.07-0.04,0.14-0.07,0.25c-0.07,0.28-0.14,0.53-0.25,0.81
		c-0.11,0.32-0.21,0.6-0.35,0.91c-0.07,0.21-0.18,0.39-0.25,0.6c-0.04,0.11-0.11,0.18-0.14,0.28c-0.18,0.32-0.35,0.63-0.53,0.95
		c-1.23,1.97-2.95,3.59-5.03,4.64c-0.32,0.14-0.6,0.32-0.91,0.42c-0.11,0.04-0.18,0.07-0.28,0.11c-0.35,0.14-0.67,0.25-1.02,0.35
		c-0.07,0.04-0.14,0.04-0.18,0.07c-0.25,0.07-0.49,0.14-0.74,0.18c-0.07,0.04-0.14,0.04-0.21,0.04c-0.28,0.07-0.6,0.11-0.91,0.14
		c-0.07,0-0.14,0.04-0.18,0.04c-0.14,0.04-0.32,0.04-0.46,0.04c-0.07,0-0.18,0-0.25,0c-0.04,0-0.11,0-0.14,0l0,0
		c-0.18,0-0.35,0-0.49,0H4.24V19.88c0-0.49,0.04-0.95,0.07-1.44c0-0.07,0.04-0.14,0.04-0.21c0.07-0.39,0.14-0.77,0.21-1.12
		c0.04-0.11,0.04-0.21,0.07-0.32c0.07-0.28,0.18-0.6,0.28-0.88c0.46-1.27,1.12-2.46,1.97-3.48c0.28-0.35,0.56-0.67,0.88-0.98
		c0.91-0.91,2-1.65,3.16-2.25c0.39-0.18,0.77-0.35,1.2-0.49c0.21-0.07,0.42-0.14,0.6-0.21c0.21-0.07,0.46-0.11,0.67-0.18
		c0.14-0.04,0.32-0.07,0.46-0.11c0.14-0.04,0.25-0.04,0.39-0.07c0.25-0.04,0.49-0.07,0.74-0.11C15.31,8,15.67,8,16.02,8
		c0.18,0,0.32,0,0.49,0c0.42,0.04,0.81,0.07,1.23,0.11c0.77,0.11,1.51,0.28,2.25,0.56c0.07,0.04,0.14,0.07,0.21,0.07
		c0.07,0.04,0.14,0.04,0.18,0.07c0.32,0.11,0.6,0.25,0.88,0.39c0.07,0.04,0.14,0.07,0.21,0.11c0.56,0.28,1.09,0.63,1.58,0.98
		c0.07,0.04,0.11,0.07,0.18,0.14c0.32,0.25,0.6,0.49,0.88,0.74c0.07,0.07,0.11,0.11,0.18,0.18c0.35,0.35,0.7,0.74,1.02,1.16
		c0.04,0.07,0.11,0.11,0.14,0.18c0.25,0.32,0.46,0.63,0.63,0.95c0.04,0.07,0.07,0.11,0.11,0.18c0.21,0.39,0.42,0.74,0.6,1.16
		c0.04,0.07,0.07,0.14,0.11,0.21c0.11,0.21,0.18,0.46,0.28,0.7c0.04,0.11,0.07,0.25,0.11,0.35c0.04,0.07,0.04,0.14,0.07,0.21
		c0.11,0.32,0.18,0.67,0.25,1.02c0.04,0.07,0.04,0.14,0.04,0.21c0.07,0.39,0.11,0.77,0.14,1.16c0,0.07,0,0.14,0,0.21
		C27.79,19.18,27.79,19.28,27.79,19.39z"/>
	<path class="st2" d="M11.94,1.49l0.14,0.04V1.32l-0.11-0.04c0.04-0.18-0.04-0.39-0.18-0.53c-0.21-0.21-0.53-0.25-0.77-0.11
		l-0.35-0.42h-0.25l0.42,0.56C10.74,0.9,10.71,1,10.67,1.14L8.46,1.11C8.42,0.9,8.32,0.72,8.14,0.61l0.14-0.39H8.07L7.93,0.54
		c-0.21-0.04-0.42,0-0.56,0.11L6.91,0.23H6.63l0.6,0.56C7.19,0.83,7.16,0.86,7.16,0.93c0,0.07,0,0.18,0,0.28l-1.9,0.42
		C5.19,1.46,5.09,1.32,4.91,1.25H4.87l0.21-1.02H4.87L4.7,1.21c-0.18,0-0.35,0.04-0.46,0.18v0.98c0.07,0.04,0.11,0.07,0.18,0.11
		h0.04L4.24,3.57v2.07c0.04,0,0.07-0.04,0.07-0.04l0.63,0.98C4.87,6.66,4.8,6.73,4.77,6.84c-0.07,0.18-0.07,0.32,0,0.49L4.24,7.61
		v0.21l0.63-0.35c0.04,0.07,0.11,0.14,0.18,0.18L4.31,9.4c-0.04,0-0.07,0-0.07,0v1.3c0.21-0.04,0.42-0.18,0.53-0.39
		c0.07-0.14,0.07-0.28,0.04-0.42l0.67-0.28c0.04,0.04,0.07,0.07,0.11,0.11c0.11,0.11,0.21,0.18,0.35,0.18V10
		C6.18,9.75,6.42,9.51,6.7,9.26c0,0,0,0,0-0.04h0.04c0.07-0.07,0.18-0.14,0.25-0.21L6.67,9.05C6.63,8.95,6.6,8.84,6.49,8.73
		c0,0-0.04,0-0.04-0.04l1.05-1.58c0.11,0.04,0.21,0.07,0.32,0.07L8,8.21C8.07,8.17,8.11,8.14,8.18,8.1L8,7.15
		c0.11-0.04,0.18-0.07,0.25-0.14C8.35,6.91,8.39,6.8,8.42,6.7l1.41,0.07c0,0.11,0.07,0.25,0.14,0.35L9.83,7.26
		c0.42-0.18,0.88-0.35,1.3-0.49c0-0.14-0.04-0.28-0.14-0.42l1.09-1.09V4.97L10.85,6.2c-0.14-0.11-0.32-0.14-0.49-0.11L9.83,4.52
		c0.07-0.04,0.11-0.07,0.18-0.11c0.07-0.07,0.14-0.18,0.14-0.25l1.9,0.35c0,0.04,0,0.07,0,0.11V4.31l-1.86-0.32
		c0-0.18-0.07-0.35-0.18-0.49c0,0,0,0-0.04-0.04l1.05-1.58c0.14,0.07,0.32,0.07,0.46,0.04l0.6,1.34V2.76l-0.42-0.95
		c0.04-0.04,0.07-0.07,0.11-0.11C11.83,1.63,11.9,1.56,11.94,1.49z M8.07,1.77l1.02,1.62L9.06,3.43C8.95,3.53,8.88,3.71,8.88,3.85
		L7.23,3.99C7.19,3.81,7.09,3.67,6.91,3.57l0.74-1.76C7.79,1.85,7.93,1.81,8.07,1.77z M5.26,2.13C5.3,2.02,5.33,1.92,5.3,1.81
		l1.9-0.42C7.23,1.53,7.34,1.63,7.48,1.7L6.74,3.46c-0.18-0.04-0.35,0-0.49,0.07L5.16,2.27C5.19,2.23,5.23,2.2,5.26,2.13z
		 M4.28,4.38L4.28,4.38l0.35-1.86c0.14,0,0.28-0.04,0.39-0.11L6.1,3.67C6.07,3.74,6.03,3.78,6,3.85C5.96,3.99,5.93,4.09,5.96,4.24
		L4.63,4.69C4.56,4.55,4.45,4.45,4.28,4.38z M4.45,5.5c0.07-0.07,0.14-0.14,0.18-0.25C4.7,5.11,4.7,5.01,4.7,4.87l1.34-0.46
		C6.1,4.52,6.18,4.62,6.28,4.66L5.54,6.41C5.4,6.38,5.23,6.38,5.12,6.45L4.45,5.5z M5.54,8.73C5.37,8.91,5.33,9.16,5.37,9.37
		L4.7,9.68C4.63,9.61,4.56,9.51,4.49,9.47l0.74-1.76c0.07,0.04,0.18,0.04,0.25,0l0.25,0.88C5.65,8.63,5.58,8.66,5.54,8.73z
		 M6.28,8.63C6.18,8.56,6.03,8.56,5.89,8.56L5.65,7.68C5.79,7.61,5.93,7.5,5.96,7.33C6,7.22,6.03,7.12,6,7.05L7.12,6.8
		c0.04,0.07,0.07,0.18,0.14,0.25c0,0,0.04,0,0.04,0.04L6.28,8.63z M7.3,6.1C7.16,6.24,7.09,6.41,7.12,6.59L6,6.84
		C5.96,6.7,5.86,6.59,5.72,6.52l0.74-1.76c0.11,0.04,0.25,0.04,0.35,0l0.6,1.27C7.37,6.03,7.34,6.06,7.3,6.1z M7.58,5.92l-0.6-1.27
		c0.11-0.07,0.18-0.18,0.25-0.28c0.04-0.07,0.04-0.14,0.04-0.21l1.65-0.14c0.04,0.11,0.07,0.21,0.18,0.32l0.04,0.04L8.07,5.96
		C7.9,5.89,7.72,5.85,7.58,5.92z M10.18,6.13c-0.07,0.04-0.11,0.07-0.18,0.14C9.9,6.38,9.87,6.49,9.83,6.59L8.42,6.52
		c0-0.14-0.07-0.28-0.18-0.42c0,0-0.04,0-0.04-0.04l1.05-1.58c0.14,0.07,0.25,0.07,0.39,0.07L10.18,6.13z M9.83,3.29
		c-0.18-0.07-0.39-0.07-0.56,0L8.25,1.67C8.32,1.6,8.39,1.53,8.42,1.42c0.04-0.04,0.04-0.11,0.04-0.14l2.21,0.04
		c0.04,0.14,0.07,0.28,0.18,0.39c0,0,0.04,0,0.04,0.04L9.83,3.29z"/>
	<path class="st2" d="M20.27,29.86c-0.35,0-0.67,0.28-0.67,0.67c0,0.11,0.04,0.18,0.07,0.28c0.11-0.04,0.18-0.07,0.28-0.11
		c0.32-0.14,0.63-0.28,0.91-0.42C20.76,30.04,20.52,29.86,20.27,29.86z M26.39,20.34l0.11-0.91c0.18,0,0.32-0.07,0.42-0.18
		c0.07-0.07,0.14-0.18,0.14-0.25l0.7,0.14c0-0.07,0-0.14,0-0.21l-0.63-0.11c0-0.14-0.04-0.28-0.14-0.42l0.63-0.63
		c0-0.07-0.04-0.14-0.04-0.21l-0.7,0.7c-0.11-0.11-0.28-0.14-0.42-0.14L26.25,17c0.11-0.04,0.18-0.07,0.25-0.14
		c0.11-0.11,0.14-0.21,0.18-0.32l0.63,0.04c-0.04-0.07-0.04-0.14-0.07-0.21l-0.56-0.04c0-0.14-0.07-0.28-0.18-0.42
		c0,0-0.04,0-0.04-0.04l0.39-0.6c-0.04-0.07-0.07-0.14-0.11-0.21l-0.46,0.7c-0.14-0.07-0.32-0.07-0.49-0.04l-0.6-1.27
		c0.11-0.07,0.18-0.18,0.25-0.28c0.04-0.07,0.04-0.14,0.04-0.21l0.67-0.04c-0.04-0.07-0.07-0.14-0.11-0.18l-0.56,0.04
		c-0.04-0.18-0.14-0.32-0.32-0.42l0.25-0.56c-0.04-0.07-0.11-0.11-0.14-0.18l-0.28,0.67c-0.18-0.04-0.35,0-0.49,0.07l-1.09-1.27
		c0.04-0.07,0.07-0.11,0.11-0.18c0.04-0.11,0.07-0.21,0.04-0.32l0.7-0.14c-0.07-0.07-0.11-0.11-0.18-0.18l-0.56,0.14
		c-0.07-0.18-0.18-0.32-0.35-0.39h-0.04l0.11-0.49c-0.07-0.04-0.11-0.07-0.18-0.14l-0.11,0.56c-0.18,0-0.39,0.07-0.53,0.21
		l-1.58-1.09C20.87,10,20.9,9.93,20.9,9.82c0-0.04,0-0.11-0.04-0.14l0.56-0.21c-0.07-0.04-0.14-0.07-0.21-0.11L20.8,9.54
		c-0.11-0.18-0.28-0.28-0.46-0.32V8.98c-0.07-0.04-0.14-0.04-0.18-0.07v0.32c-0.21,0.04-0.39,0.14-0.46,0.32l-2.07-0.81
		c0-0.04,0.04-0.11,0.04-0.14c0-0.11-0.04-0.18-0.04-0.25l0.11-0.07c-0.39-0.07-0.81-0.11-1.23-0.11c-0.07,0.07-0.11,0.14-0.14,0.25
		l-1.41-0.21c-0.25,0.04-0.49,0.07-0.74,0.11l2.14,0.28c0,0.14,0.04,0.28,0.11,0.39l-1.58,1.44c-0.14-0.11-0.35-0.18-0.56-0.11
		l-0.74-1.76c0.11-0.07,0.21-0.18,0.25-0.28c-0.14,0.04-0.32,0.07-0.46,0.11c-0.21,0.07-0.46,0.11-0.67,0.18l-1.44,1.86
		c-0.18-0.11-0.39-0.11-0.56-0.04c-0.28,0.11-0.42,0.39-0.39,0.67L7.9,11.69c-0.04-0.07-0.07-0.14-0.14-0.21c0,0,0,0-0.04-0.04
		c-0.32,0.32-0.6,0.63-0.88,0.98c0.07,0.04,0.11,0.11,0.18,0.11l-0.63,2.43C6.21,14.92,6,14.99,5.86,15.13
		c-0.21,0.21-0.25,0.53-0.11,0.77l-1.09,0.91c-0.04,0.11-0.07,0.21-0.07,0.32l1.34-0.98c0.11,0.11,0.21,0.14,0.35,0.18l-0.04,2.21
		c-0.21,0.04-0.39,0.14-0.49,0.32l-1.41-0.6c0,0.07-0.04,0.14-0.04,0.21L5.61,19c-0.04,0.21,0,0.42,0.11,0.56l-1.51,1.58v1.05
		c0.11-0.07,0.18-0.18,0.21-0.28v-0.04l1.86,0.39c0,0.18,0.07,0.39,0.21,0.53L5.4,24.38c-0.11-0.04-0.18-0.07-0.28-0.07
		c-0.04,0-0.11,0-0.14,0.04l-0.74-1.9v0.53l0.56,1.44c-0.18,0.11-0.28,0.28-0.32,0.46H4.24v0.18h0.25c0.04,0.21,0.14,0.39,0.32,0.46
		l-0.56,1.44v0.53l0.74-1.9c0.04,0,0.11,0.04,0.14,0.04c0.11,0,0.21-0.04,0.28-0.07l1.12,1.58c-0.14,0.11-0.21,0.28-0.21,0.49v0.04
		l-1.86,0.39c-0.04-0.14-0.14-0.21-0.21-0.32v1.05l1.51,1.58c-0.11,0.14-0.18,0.35-0.11,0.56l-1.41,0.6v0.18h0.07l1.41-0.6
		c0.11,0.18,0.28,0.28,0.49,0.32v0.25h0.18v-0.28c0.04,0,0.11-0.04,0.14-0.04c0.11-0.04,0.18-0.11,0.25-0.18l0.77,0.49H7.9
		l-1.02-0.63c0.07-0.14,0.07-0.28,0.04-0.42l1.76-0.74c0.11,0.14,0.25,0.25,0.42,0.32l-0.11,1.51h0.18l0.11-1.51
		c0.07,0,0.14-0.04,0.21-0.04C9.62,30.11,9.69,30,9.76,29.9l1.27,0.6c-0.04,0.14-0.04,0.32,0.04,0.46v0.04l-1.02,0.67h0.35
		l0.77-0.53c0.11,0.14,0.28,0.21,0.42,0.21l0.04,0.32h0.18l-0.04-0.32c0.04,0,0.07-0.04,0.11-0.04c0.18-0.07,0.32-0.21,0.39-0.39
		l1.12,0.21c0,0.14,0.04,0.28,0.14,0.42l-0.14,0.14h1.05c0.04-0.04,0.04-0.04,0.07-0.07c0.11-0.11,0.18-0.28,0.18-0.42l0.91-0.11
		c0.04,0.11,0.07,0.21,0.18,0.32c0,0,0.04,0,0.04,0.04l-0.18,0.25c0.07,0,0.18,0,0.25,0l0.07-0.14c0.11,0.07,0.25,0.07,0.39,0.07
		v0.04c0.07,0,0.14,0,0.18-0.04l-0.04-0.07c0.07-0.04,0.14-0.07,0.18-0.14c0.18-0.18,0.21-0.42,0.18-0.63l0.67-0.28
		c0.07,0.07,0.14,0.18,0.21,0.21l-0.32,0.77c0.07,0,0.14-0.04,0.21-0.04l0.28-0.67c0.11,0.04,0.21,0.04,0.32,0l0.18,0.46
		c0.07-0.04,0.14-0.04,0.18-0.07l-0.18-0.49c0.14-0.07,0.21-0.18,0.28-0.32c0.14-0.35-0.04-0.7-0.35-0.84
		c-0.35-0.14-0.7,0.04-0.84,0.35c-0.07,0.14-0.07,0.28-0.04,0.42l-0.67,0.28c-0.04-0.04-0.07-0.07-0.11-0.11
		c-0.11-0.11-0.21-0.18-0.35-0.18v-0.74c0.14-0.04,0.28-0.07,0.39-0.18c0.25-0.25,0.25-0.67,0-0.91c-0.25-0.25-0.67-0.25-0.91,0
		c-0.11,0.11-0.18,0.25-0.18,0.39h-0.74c0-0.04-0.04-0.11-0.04-0.14c-0.07-0.14-0.14-0.25-0.25-0.32l0.28-0.67
		c0.14,0.04,0.28,0.04,0.42-0.04c0.35-0.14,0.49-0.53,0.35-0.84c-0.14-0.35-0.53-0.49-0.84-0.35c-0.14,0.07-0.25,0.18-0.32,0.28
		l-0.67-0.25c0-0.04,0.04-0.11,0.04-0.14c0-0.14-0.04-0.28-0.11-0.39l0.53-0.49c0.11,0.07,0.25,0.14,0.39,0.14
		c0.35,0,0.67-0.28,0.67-0.67c0-0.35-0.28-0.67-0.67-0.67c-0.14,0-0.28,0.07-0.39,0.14l-0.53-0.49c0.04-0.04,0.07-0.07,0.07-0.14
		c0.07-0.14,0.07-0.28,0.04-0.39l0.7-0.28c0.07,0.14,0.18,0.21,0.32,0.28c0.35,0.14,0.7-0.04,0.84-0.35
		c0.14-0.35-0.04-0.7-0.35-0.84c-0.14-0.07-0.28-0.07-0.42-0.04l-0.28-0.67c0.04-0.04,0.07-0.07,0.11-0.11
		c0.11-0.11,0.18-0.21,0.18-0.35h0.74c0.04,0.14,0.07,0.28,0.18,0.39c0.25,0.25,0.67,0.25,0.91,0c0.25-0.25,0.25-0.67,0-0.91
		c-0.11-0.11-0.25-0.18-0.39-0.18v-0.74c0.04,0,0.11-0.04,0.14-0.04c0.14-0.07,0.25-0.14,0.32-0.25l0.67,0.28
		c-0.04,0.14-0.04,0.28,0.04,0.42c0.14,0.35,0.53,0.49,0.84,0.35c0.35-0.14,0.49-0.53,0.35-0.84c-0.07-0.14-0.18-0.25-0.28-0.32
		l0.25-0.67c0.04,0,0.11,0.04,0.14,0.04c0.14,0,0.28-0.04,0.39-0.11l0.49,0.53c-0.07,0.11-0.14,0.25-0.14,0.39
		c0,0.35,0.28,0.67,0.67,0.67c0.35,0,0.67-0.28,0.67-0.67c0-0.14-0.07-0.28-0.14-0.39l0.49-0.53c0.04,0.04,0.07,0.07,0.14,0.07
		c0.14,0.07,0.28,0.07,0.39,0.04l0.25,0.67c-0.11,0.07-0.21,0.18-0.28,0.32c-0.14,0.35,0.04,0.7,0.35,0.84
		c0.35,0.14,0.7-0.04,0.84-0.35c0.07-0.14,0.07-0.28,0.04-0.42l0.67-0.28c0.04,0.04,0.07,0.07,0.11,0.11
		c0.11,0.11,0.21,0.18,0.35,0.18v0.74c-0.14,0.04-0.28,0.07-0.39,0.18c-0.25,0.25-0.25,0.67,0,0.91c0.25,0.25,0.67,0.25,0.91,0
		c0.11-0.11,0.18-0.25,0.18-0.39h0.74c0,0.04,0.04,0.11,0.04,0.14c0.07,0.14,0.14,0.25,0.25,0.32l-0.28,0.67
		c-0.14-0.04-0.28-0.04-0.42,0.04c-0.35,0.14-0.49,0.53-0.35,0.84c0.14,0.35,0.53,0.49,0.84,0.35c0.14-0.07,0.25-0.18,0.32-0.28
		l0.67,0.25c0,0.04-0.04,0.11-0.04,0.14c0,0.14,0.04,0.28,0.11,0.39l-0.53,0.49c-0.11-0.07-0.25-0.14-0.39-0.14
		c-0.35,0-0.67,0.28-0.67,0.67c0,0.35,0.28,0.67,0.67,0.67c0.04,0,0.04,0,0.07,0c0.18-0.32,0.35-0.63,0.53-0.95
		c-0.04-0.04-0.04-0.07-0.07-0.11l0.18-0.18c0.11-0.18,0.18-0.39,0.25-0.6c0.14-0.28,0.25-0.6,0.35-0.91
		c-0.18,0.04-0.35,0.14-0.42,0.32l-0.67-0.25c0.04-0.11,0.04-0.21,0-0.32l1.34-0.56c0.04-0.07,0.04-0.14,0.07-0.25l-1.48,0.6
		c-0.07-0.11-0.14-0.18-0.21-0.21l0.28-0.67c0.14,0.04,0.28,0.04,0.42-0.04c0.18-0.07,0.28-0.18,0.35-0.32l0.74,0.21
		c0-0.07,0.04-0.14,0.04-0.18l-0.7-0.21c0.04-0.11,0-0.25-0.04-0.35v-0.04l0.91-0.63c0-0.07,0-0.18,0.04-0.25l-1.05,0.7
		C26.63,20.44,26.53,20.34,26.39,20.34z M17.56,8.84l2.07,0.81c0,0.04-0.04,0.11-0.04,0.14c0,0.11,0.04,0.21,0.07,0.28l-1.58,1.12
		c-0.11-0.14-0.28-0.21-0.49-0.21h-0.04l-0.39-1.86C17.35,9.09,17.49,8.98,17.56,8.84z M19.71,13.34l-1.05,0.95
		c-0.11-0.11-0.25-0.14-0.42-0.14H18.2l-0.35-1.9c0.14-0.04,0.25-0.14,0.32-0.25l1.48,0.74c-0.04,0.07-0.04,0.14-0.04,0.21
		C19.6,13.09,19.64,13.23,19.71,13.34z M15.1,16.08c-0.04-0.14-0.14-0.21-0.25-0.28l0.6-1.27c0.11,0.04,0.25,0.04,0.35,0l0.74,1.76
		c-0.14,0.07-0.21,0.21-0.28,0.35l-1.12-0.25C15.17,16.26,15.14,16.19,15.1,16.08z M13.66,21.04l-0.88,0.25
		c-0.07-0.14-0.18-0.28-0.35-0.32c-0.11-0.04-0.21-0.07-0.28-0.04l-0.25-1.12c0.07-0.04,0.18-0.07,0.25-0.14c0,0,0-0.04,0.04-0.04
		l1.58,1.05C13.66,20.79,13.63,20.93,13.66,21.04z M10.74,26.94l1.86-0.39c0.04,0.11,0.11,0.21,0.21,0.32l-0.46,0.81
		c-0.14-0.07-0.32-0.07-0.49,0c-0.11,0.04-0.18,0.11-0.25,0.18l-0.98-0.63C10.74,27.15,10.74,27.05,10.74,26.94L10.74,26.94z
		 M12.57,26.35L12.57,26.35l-1.86,0.39c-0.04-0.11-0.11-0.18-0.18-0.25l0.67-0.95c0.11,0.04,0.18,0.07,0.28,0.07
		c0.18,0,0.32-0.07,0.46-0.18l0.74,0.6C12.61,26.1,12.57,26.24,12.57,26.35z M9.44,27.01l-1.86,0.35c-0.04-0.14-0.14-0.25-0.25-0.32
		l0.74-1.48c0.07,0.04,0.14,0.04,0.21,0.04c0.14,0,0.25-0.04,0.35-0.11l0.95,1.05C9.51,26.66,9.44,26.8,9.44,27.01
		C9.44,26.98,9.44,26.98,9.44,27.01z M6.98,15.45l2.04-0.88c0.04,0.04,0.07,0.07,0.11,0.11c0.07,0.07,0.18,0.14,0.25,0.14l-0.35,1.9
		c-0.18,0-0.35,0.07-0.49,0.18c0,0,0,0-0.04,0.04l-1.58-1.05C6.98,15.77,7.02,15.62,6.98,15.45z M14.08,15.84
		c-0.14,0.11-0.21,0.28-0.21,0.42l-1.41,0.07c-0.04-0.11-0.07-0.25-0.18-0.32c-0.04-0.04-0.11-0.11-0.18-0.14l0.53-1.58
		c0.11,0.04,0.25,0,0.35-0.04h0.04L14.08,15.84z M13.17,14.15c0.11-0.11,0.18-0.21,0.21-0.35l1.65,0.14c0,0.07,0.04,0.14,0.04,0.21
		c0.04,0.14,0.14,0.21,0.25,0.28l-0.6,1.27c-0.14-0.04-0.32-0.04-0.46,0.04h-0.04L13.17,14.15z M7.51,21.95l1.27-1.09
		c0.07,0.04,0.11,0.07,0.18,0.11C9.09,21,9.2,21.04,9.34,21l0.46,1.34c-0.14,0.07-0.25,0.18-0.32,0.32v0.04L7.62,22.3
		C7.62,22.2,7.58,22.06,7.51,21.95z M9.62,17.31l1.58-0.53c0.04,0.07,0.07,0.11,0.14,0.18c0.11,0.11,0.21,0.14,0.32,0.18l-0.07,1.41
		c-0.14,0-0.28,0.07-0.42,0.18c0,0,0,0.04-0.04,0.04L9.55,17.7C9.66,17.56,9.66,17.42,9.62,17.31z M11.06,18.89
		c-0.07,0.14-0.07,0.32-0.04,0.49l-1.27,0.6c-0.07-0.11-0.18-0.18-0.28-0.25C9.41,19.7,9.34,19.7,9.27,19.7l-0.14-1.65
		c0.11-0.04,0.21-0.07,0.32-0.18c0,0,0-0.04,0.04-0.04L11.06,18.89z M9.73,23.46c0.04,0.04,0.07,0.04,0.11,0.07
		c0.18,0.07,0.39,0.07,0.53-0.04l0.67,0.95c-0.11,0.11-0.18,0.25-0.21,0.39h-1.9c-0.04-0.14-0.07-0.25-0.14-0.32L9.73,23.46z
		 M10.36,22.3c-0.14-0.04-0.25-0.07-0.39-0.04l-0.46-1.34c0.11-0.07,0.21-0.14,0.25-0.25l1.76,0.74c-0.04,0.14-0.04,0.32,0.04,0.42
		l-0.98,0.63C10.53,22.41,10.43,22.34,10.36,22.3z M9.87,20.51c0.04-0.11,0.04-0.25,0-0.35l1.27-0.6c0.04,0.04,0.04,0.07,0.07,0.11
		c0.14,0.14,0.32,0.21,0.49,0.18l0.25,1.12c-0.14,0.04-0.25,0.14-0.35,0.28L9.87,20.51z M13.56,18.37
		c-0.11,0.11-0.14,0.28-0.14,0.42L12.29,19c-0.04-0.11-0.07-0.18-0.14-0.25c-0.11-0.11-0.21-0.14-0.32-0.18l0.07-1.41
		c0.11,0,0.25-0.07,0.35-0.14L13.56,18.37z M11.9,15.84c-0.18-0.04-0.35,0-0.49,0.11l-1.34-1.34c0.11-0.11,0.14-0.25,0.14-0.42
		l1.9-0.35c0,0,0,0.04,0.04,0.04c0.07,0.14,0.18,0.28,0.32,0.35L11.9,15.84z M11.27,16.08c-0.11,0.14-0.14,0.32-0.11,0.49L9.58,17.1
		C9.55,17.03,9.51,17,9.48,16.93c-0.07-0.07-0.18-0.14-0.25-0.14l0.35-1.9c0.14,0,0.28-0.04,0.42-0.14L11.27,16.08z M8.53,17.87
		c0.11,0.11,0.28,0.18,0.42,0.18l0.14,1.65c-0.18,0.04-0.32,0.14-0.42,0.32l-1.76-0.74c0.04-0.14,0.04-0.28-0.04-0.42l1.62-1.02
		L8.53,17.87z M8.57,20.19c-0.04,0.18,0,0.35,0.07,0.49l-1.27,1.09c-0.07-0.04-0.11-0.07-0.18-0.11c-0.11-0.04-0.21-0.07-0.32-0.04
		l-0.42-1.9C6.6,19.7,6.7,19.6,6.77,19.46L8.57,20.19z M7.58,22.55C7.58,22.55,7.58,22.51,7.58,22.55l1.86,0.35
		c0,0.18,0.04,0.32,0.14,0.46l-0.95,1.05c-0.11-0.07-0.21-0.11-0.35-0.11c-0.07,0-0.14,0-0.21,0.04l-0.74-1.48
		C7.44,22.76,7.51,22.69,7.58,22.55z M8.81,25.36c0.07-0.11,0.14-0.21,0.14-0.32h1.9c0.04,0.14,0.11,0.28,0.21,0.39l-0.67,0.95
		c-0.11-0.04-0.18-0.07-0.28-0.07c-0.14,0-0.25,0.04-0.35,0.11L8.81,25.36z M11.48,24.27c-0.11,0-0.21,0.04-0.28,0.07l-0.67-0.95
		c0.07-0.07,0.11-0.14,0.18-0.21v-0.04l1.86,0.39c0,0.14,0.04,0.25,0.11,0.35l-0.74,0.6C11.83,24.34,11.66,24.27,11.48,24.27z
		 M12.61,23.29C12.61,23.29,12.61,23.32,12.61,23.29l-1.86-0.35c0-0.11,0-0.21-0.07-0.32l0.98-0.63c0.07,0.07,0.14,0.14,0.25,0.18
		c0.18,0.07,0.32,0.07,0.49,0l0.46,0.81C12.75,23.08,12.68,23.18,12.61,23.29z M12.26,19.46c0.04-0.11,0.07-0.21,0.07-0.32
		l1.12-0.21c0.04,0.11,0.07,0.18,0.14,0.25c0.11,0.11,0.28,0.18,0.42,0.18l0.11,0.91c-0.11,0.04-0.21,0.07-0.32,0.18
		c0,0,0,0.04-0.04,0.04L12.26,19.46z M14.08,18.09c-0.14,0-0.28,0.04-0.42,0.14l-1.34-1.34c0.07-0.11,0.11-0.21,0.14-0.35l1.41-0.07
		c0,0.04,0.04,0.07,0.04,0.11c0.07,0.18,0.21,0.32,0.39,0.39L14.08,18.09z M14.47,16.96c0.11,0,0.18,0,0.28-0.04h0.04l1.05,1.58
		c-0.11,0.07-0.18,0.21-0.21,0.32l-0.91-0.11c0-0.18-0.07-0.32-0.18-0.42c-0.07-0.07-0.18-0.14-0.25-0.14L14.47,16.96z M16.02,14.46
		c0.11-0.07,0.18-0.14,0.25-0.25l1.34,0.46c0,0.04,0,0.07,0,0.11c0,0.21,0.11,0.39,0.21,0.49l-0.63,0.98
		c-0.14-0.07-0.28-0.07-0.42-0.04L16.02,14.46z M17.67,14.46l-1.34-0.46c0.04-0.11,0-0.25-0.04-0.39c-0.04-0.07-0.07-0.14-0.11-0.18
		l1.09-1.27c0.11,0.07,0.21,0.11,0.35,0.11h0.04l0.39,1.86C17.88,14.22,17.74,14.32,17.67,14.46z M16.58,9.02
		c0.11,0.07,0.25,0.14,0.39,0.14H17l0.39,1.86c-0.18,0.07-0.32,0.21-0.39,0.39l-1.9-0.42c0-0.11,0-0.21-0.04-0.32
		c-0.04-0.04-0.04-0.11-0.07-0.14L16.58,9.02z M15.07,11.16l1.9,0.42c0,0.04,0,0.04,0,0.04c0,0.18,0.07,0.32,0.18,0.42l-1.09,1.27
		c-0.14-0.11-0.35-0.14-0.49-0.07l-0.74-1.76C14.93,11.41,15.03,11.3,15.07,11.16z M14.61,11.58l0.74,1.76
		c-0.14,0.11-0.25,0.25-0.32,0.42l-1.65-0.14c0-0.07-0.04-0.14-0.04-0.21c-0.04-0.11-0.11-0.18-0.18-0.25l1.02-1.62
		C14.33,11.62,14.47,11.62,14.61,11.58z M12.92,8.56c0.14,0.07,0.32,0.11,0.49,0.07l0.74,1.76c-0.21,0.11-0.32,0.28-0.35,0.46
		l-2.21,0.04c0-0.04-0.04-0.11-0.04-0.14c-0.04-0.07-0.07-0.14-0.14-0.21L12.92,8.56z M11.62,11.09l2.21-0.04
		c0,0.04,0.04,0.11,0.04,0.14c0.04,0.11,0.11,0.18,0.18,0.25l-1.02,1.62c-0.18-0.07-0.35-0.07-0.53,0h-0.04l-1.05-1.58
		C11.52,11.41,11.59,11.23,11.62,11.09z M10.78,11.65c0.14,0.04,0.28,0.04,0.42-0.04h0.04l1.05,1.58c-0.14,0.11-0.21,0.28-0.21,0.49
		l-1.9,0.35c-0.04-0.11-0.07-0.18-0.14-0.25c-0.04-0.04-0.07-0.07-0.11-0.11L10.78,11.65z M7.93,11.9l2.43-0.63
		c0.07,0.14,0.14,0.25,0.25,0.32l-0.88,2.04c-0.18-0.07-0.39-0.04-0.56,0.11l-1.34-1.34C7.9,12.21,7.97,12.04,7.93,11.9z
		 M7.23,12.64c0.18,0.04,0.32-0.04,0.46-0.14l1.34,1.34c-0.11,0.18-0.14,0.39-0.11,0.56l-2.04,0.88c-0.04-0.04-0.07-0.07-0.11-0.11
		c-0.07-0.07-0.14-0.11-0.21-0.14L7.23,12.64z M6.42,16.29c0.14-0.04,0.28-0.07,0.39-0.18c0,0,0-0.04,0.04-0.04l1.58,1.05
		c-0.07,0.18-0.07,0.39,0,0.56l-1.62,1.02c-0.07-0.07-0.14-0.14-0.25-0.18c-0.04-0.04-0.11-0.04-0.14-0.04L6.42,16.29z M6.35,22.06
		L6.35,22.06l-1.86-0.35c0-0.14-0.04-0.32-0.14-0.42l1.55-1.58c0.04,0.04,0.07,0.07,0.14,0.07c0.11,0.04,0.21,0.07,0.32,0.04
		l0.42,1.9C6.56,21.74,6.42,21.88,6.35,22.06z M6.67,22.9c0,0,0.04,0,0.04,0.04c0.14,0.07,0.32,0.07,0.46,0l0.74,1.48
		c-0.14,0.11-0.25,0.25-0.28,0.46H5.75c-0.04-0.14-0.11-0.28-0.21-0.39L6.67,22.9z M5.58,25.43c0.11-0.11,0.18-0.25,0.21-0.39h1.9
		c0.04,0.18,0.14,0.35,0.28,0.46l-0.81,1.48c-0.07-0.04-0.14-0.04-0.21-0.04c-0.11,0-0.21,0.04-0.28,0.07L5.58,25.43z M6.32,30.07
		c-0.11,0-0.21,0-0.32,0.04c-0.04,0.04-0.11,0.04-0.14,0.07L4.31,28.6c0.07-0.11,0.14-0.25,0.14-0.39v-0.04l1.86-0.39
		c0.07,0.18,0.21,0.32,0.39,0.39L6.32,30.07z M8.57,29.69l-1.76,0.74c-0.07-0.14-0.21-0.21-0.32-0.28l0.42-1.9c0.04,0,0.04,0,0.04,0
		c0.18,0,0.32-0.07,0.42-0.18l1.27,1.09C8.57,29.33,8.53,29.51,8.57,29.69z M9.34,28.88c-0.11-0.04-0.25,0-0.39,0.04
		c-0.07,0.04-0.14,0.07-0.18,0.11l-1.27-1.09c0.07-0.11,0.11-0.21,0.11-0.35v-0.04l1.86-0.39c0.07,0.14,0.18,0.28,0.32,0.35
		L9.34,28.88z M9.51,28.95l0.46-1.34c0.04,0,0.07,0,0.11,0c0.21,0,0.39-0.11,0.49-0.21l0.98,0.63c-0.07,0.14-0.07,0.28-0.04,0.42
		l-1.76,0.74C9.73,29.09,9.62,28.98,9.51,28.95z M11.69,30.04c-0.11,0-0.21,0-0.28,0.04c-0.14,0.04-0.21,0.14-0.28,0.25l-1.27-0.6
		c0.04-0.11,0.04-0.25,0-0.35l1.76-0.74c0.07,0.14,0.21,0.21,0.35,0.28L11.69,30.04z M11.87,30.07l0.25-1.12
		c0.11,0,0.21,0,0.28-0.04c0.18-0.07,0.28-0.18,0.35-0.32l0.88,0.25c-0.04,0.11,0,0.25,0.04,0.35v0.04l-1.58,1.05
		C12.05,30.18,11.98,30.14,11.87,30.07z M14.05,30.49c-0.18,0-0.32,0.07-0.42,0.18c-0.07,0.07-0.14,0.18-0.14,0.25l-1.12-0.21
		c0-0.11,0-0.18-0.04-0.28v-0.04l1.58-1.05c0.07,0.11,0.21,0.18,0.32,0.21L14.05,30.49z M15.95,29.4c0.07,0.07,0.18,0.11,0.28,0.11
		v0.74c-0.14,0.04-0.28,0.07-0.39,0.18c-0.11,0.11-0.18,0.28-0.18,0.42l-0.91,0.11c-0.04-0.07-0.07-0.14-0.11-0.21L15.95,29.4z
		 M14.96,29.02l0.74-0.04c0.04,0.11,0.07,0.21,0.11,0.28l-1.34,1.34c-0.07-0.04-0.14-0.11-0.21-0.11l0.11-0.91
		c0.07,0,0.14-0.04,0.21-0.04C14.79,29.44,14.93,29.23,14.96,29.02z M14.54,27.4c0.07,0.11,0.14,0.18,0.21,0.21l-0.28,0.67
		c-0.14-0.04-0.28-0.04-0.42,0.04c-0.18,0.07-0.28,0.18-0.35,0.32l-0.88-0.25c0-0.07,0-0.18,0-0.25L14.54,27.4z M13.8,26.66
		l0.67,0.25c-0.04,0.11-0.04,0.21,0,0.32l-1.76,0.74c-0.04-0.07-0.11-0.14-0.18-0.18l0.46-0.81c0.07,0.04,0.14,0.04,0.21,0.04
		C13.49,27.01,13.7,26.87,13.8,26.66z M13.63,25.82c-0.11-0.07-0.25-0.14-0.39-0.14c-0.18,0-0.32,0.07-0.46,0.18l-0.74-0.6
		c0.04-0.07,0.07-0.14,0.07-0.25h1.9c0,0.11,0.07,0.21,0.11,0.28L13.63,25.82z M14.15,24.55c-0.07,0.07-0.11,0.18-0.11,0.28h-1.9
		c0-0.07-0.04-0.18-0.07-0.25l0.74-0.6c0.07,0.04,0.11,0.11,0.21,0.14c0.21,0.11,0.46,0.04,0.67-0.11L14.15,24.55z M14.47,22.97
		l-0.67,0.25c-0.07-0.14-0.18-0.21-0.32-0.28c-0.18-0.07-0.32-0.07-0.49,0l-0.46-0.81c0.07-0.04,0.14-0.11,0.18-0.18l1.76,0.74
		C14.47,22.76,14.47,22.87,14.47,22.97z M14.75,22.23c-0.07,0.07-0.18,0.14-0.21,0.21l-1.76-0.74c0.04-0.07,0.04-0.18,0-0.25
		l0.88-0.25c0.04,0.07,0.07,0.14,0.14,0.18c0.18,0.18,0.42,0.21,0.63,0.18L14.75,22.23z M15.67,20.9h-0.74
		c-0.04-0.14-0.07-0.28-0.18-0.39c-0.11-0.11-0.28-0.18-0.42-0.18l-0.11-0.91c0.07-0.04,0.14-0.07,0.21-0.11l1.34,1.34
		C15.74,20.69,15.7,20.79,15.67,20.9z M15.95,20.48l-1.34-1.34c0.07-0.07,0.11-0.14,0.11-0.21l0.91,0.11c0,0.07,0.04,0.14,0.04,0.21
		c0.11,0.21,0.32,0.39,0.53,0.39v0.74C16.12,20.37,16.02,20.41,15.95,20.48z M16.37,18.33c-0.11-0.04-0.25,0-0.35,0.04h-0.04
		l-1.05-1.58c0.07-0.07,0.14-0.18,0.18-0.25l1.12,0.25c0,0.11,0,0.21,0.04,0.28c0.07,0.18,0.18,0.28,0.32,0.35L16.37,18.33z
		 M17.56,19.46l-0.67-0.28c0.04-0.14,0.04-0.28-0.04-0.42c-0.07-0.18-0.18-0.28-0.32-0.35l0.25-0.88c0.07,0,0.18,0,0.25,0l0.74,1.76
		C17.7,19.28,17.63,19.35,17.56,19.46z M18.27,19.14c-0.11-0.04-0.21-0.04-0.32,0l-0.74-1.76c0.07-0.04,0.14-0.11,0.18-0.18
		l0.81,0.46c-0.04,0.07-0.04,0.14-0.04,0.21c0,0.25,0.14,0.46,0.32,0.56L18.27,19.14z M18.34,17.52l-0.81-0.46
		c0.07-0.14,0.07-0.32,0-0.49c-0.04-0.11-0.11-0.18-0.18-0.25l0.63-0.98c0.07,0.04,0.18,0.07,0.28,0.07h0.04l0.39,1.86
		C18.51,17.35,18.41,17.42,18.34,17.52z M19.22,17.35c-0.11-0.07-0.21-0.11-0.35-0.11h-0.04l-0.35-1.83
		c0.11-0.04,0.18-0.11,0.25-0.18l0.95,0.67c-0.04,0.11-0.07,0.18-0.07,0.28c0,0.18,0.07,0.32,0.18,0.46L19.22,17.35z M20.17,18.72
		c-0.11,0-0.21,0.07-0.28,0.11l-0.49-0.53c0.07-0.11,0.14-0.25,0.14-0.39c0-0.18-0.07-0.32-0.18-0.46l0.6-0.74
		c0.07,0.04,0.14,0.07,0.25,0.07C20.17,16.82,20.17,18.72,20.17,18.72z M20.17,15.52c-0.14,0.04-0.28,0.11-0.39,0.21l-0.95-0.67
		c0.04-0.11,0.07-0.18,0.07-0.28c0-0.14-0.04-0.25-0.11-0.35l1.05-0.95c0.11,0.07,0.21,0.14,0.32,0.14L20.17,15.52L20.17,15.52z
		 M20.17,12.32c-0.18,0.04-0.35,0.14-0.46,0.28l-1.48-0.74c0.04-0.07,0.04-0.14,0.04-0.21c0-0.11-0.04-0.21-0.07-0.28l1.58-1.12
		c0.11,0.11,0.25,0.18,0.39,0.21V12.32L20.17,12.32z M26.04,16.96l0.21,1.12c-0.11,0.04-0.18,0.07-0.25,0.14
		c-0.11,0.11-0.18,0.28-0.18,0.42l-0.91,0.11c-0.04-0.11-0.07-0.21-0.18-0.32c0,0-0.04,0-0.04-0.04l1.05-1.58
		C25.82,16.96,25.93,17,26.04,16.96z M25.05,14.5l0.6,1.27c-0.04,0.04-0.07,0.04-0.11,0.07c-0.14,0.14-0.21,0.32-0.18,0.49
		l-1.12,0.25c-0.04-0.14-0.14-0.25-0.28-0.35l0.74-1.76C24.81,14.57,24.91,14.57,25.05,14.5z M24.49,14.46l-0.74,1.76
		c-0.14-0.04-0.32-0.04-0.42,0.04l-0.63-0.98c0.07-0.07,0.14-0.14,0.18-0.25c0.04-0.14,0.07-0.25,0.04-0.39l1.34-0.46
		C24.31,14.29,24.38,14.39,24.49,14.46z M23.26,12.18l1.09,1.27c-0.04,0.07-0.07,0.11-0.11,0.18c-0.04,0.14-0.07,0.25-0.04,0.39
		l-1.34,0.46c-0.07-0.14-0.18-0.25-0.32-0.32h-0.04l0.39-1.86C23.01,12.29,23.15,12.29,23.26,12.18z M22.66,12.25
		C22.66,12.25,22.7,12.25,22.66,12.25l-0.35,1.86c-0.18,0-0.32,0.04-0.46,0.14L20.8,13.3c0.07-0.11,0.11-0.21,0.11-0.35
		c0-0.07,0-0.14-0.04-0.21L22.34,12C22.45,12.11,22.52,12.21,22.66,12.25z M20.38,10.42c0.14-0.04,0.28-0.11,0.39-0.21l1.58,1.09
		c0,0,0,0.04-0.04,0.04c-0.07,0.14-0.07,0.32,0,0.46l-1.48,0.74c-0.11-0.14-0.25-0.25-0.46-0.28V10.42L20.38,10.42z M20.38,13.62
		c0.14-0.04,0.25-0.07,0.32-0.14l1.05,0.95c-0.04,0.04-0.04,0.07-0.07,0.11c-0.07,0.18-0.07,0.39,0.04,0.53l-0.95,0.67
		c-0.11-0.11-0.25-0.18-0.39-0.21L20.38,13.62L20.38,13.62z M21.15,18.3l-0.49,0.53c-0.07-0.07-0.18-0.11-0.28-0.11v-1.9
		c0.07,0,0.18-0.04,0.25-0.07l0.6,0.74c-0.04,0.07-0.11,0.11-0.14,0.21C20.97,17.87,21.01,18.12,21.15,18.3z M21.71,17.24
		c-0.14,0-0.25,0.04-0.35,0.11l-0.6-0.74c0.11-0.11,0.18-0.28,0.18-0.46c0-0.11-0.04-0.21-0.07-0.28l0.95-0.67
		c0.07,0.07,0.14,0.11,0.21,0.18h0.04L21.71,17.24z M21.89,17.28l0.39-1.86c0.11,0,0.21,0,0.32-0.07l0.63,0.98
		c-0.07,0.07-0.14,0.14-0.18,0.25c-0.07,0.18-0.07,0.32,0,0.49l-0.81,0.46C22.13,17.42,22.03,17.35,21.89,17.28
		C21.92,17.31,21.89,17.31,21.89,17.28z M22.24,19.14l-0.25-0.67c0.11-0.07,0.21-0.18,0.28-0.32c0.07-0.18,0.07-0.32,0-0.49
		l0.81-0.46c0.04,0.07,0.11,0.14,0.18,0.18l-0.74,1.76C22.45,19.14,22.34,19.14,22.24,19.14z M23.79,18.51
		c-0.18,0.18-0.21,0.42-0.18,0.63l-0.67,0.28c-0.07-0.07-0.14-0.18-0.21-0.21l0.74-1.76c0.07,0.04,0.18,0.04,0.25,0l0.25,0.88
		C23.89,18.4,23.86,18.47,23.79,18.51z M24.17,18.33l-0.25-0.88c0.14-0.07,0.28-0.18,0.32-0.35c0.04-0.11,0.07-0.21,0.04-0.28
		l1.12-0.25c0.04,0.07,0.07,0.18,0.14,0.25c0,0,0.04,0,0.04,0.04l-1.05,1.58C24.42,18.33,24.28,18.3,24.17,18.33z M24.59,20.48
		c-0.07-0.07-0.18-0.11-0.28-0.11v-0.74c0.14-0.04,0.28-0.07,0.39-0.18c0.11-0.11,0.18-0.28,0.18-0.42l0.91-0.11
		c0.04,0.07,0.07,0.14,0.11,0.21L24.59,20.48z M26.21,20.3c-0.07,0-0.14,0.04-0.21,0.04c-0.21,0.11-0.39,0.32-0.39,0.53h-0.74
		c-0.04-0.11-0.07-0.21-0.11-0.28l1.34-1.34c0.07,0.07,0.14,0.11,0.21,0.11L26.21,20.3z"/>
</g>
</svg>
